<?xml version="1.0" encoding="UTF-8" standalone="no"?>
<svg
   xmlns:dc="http://purl.org/dc/elements/1.1/"
   xmlns:cc="http://creativecommons.org/ns#"
   xmlns:rdf="http://www.w3.org/1999/02/22-rdf-syntax-ns#"
   xmlns:svg="http://www.w3.org/2000/svg"
   xmlns="http://www.w3.org/2000/svg"
   xmlns:sodipodi="http://sodipodi.sourceforge.net/DTD/sodipodi-0.dtd"
   xmlns:inkscape="http://www.inkscape.org/namespaces/inkscape"
   height="128px"
   id="Layer_1"
   style="enable-background:new 0 0 128 128;"
   version="1.1"
   viewBox="0 0 128 128"
   width="128px"
   xml:space="preserve"
   inkscape:version="0.91 r13725"
   sodipodi:docname="if_code_nuevosvg.svg"><metadata
     id="metadata25"><rdf:RDF><cc:Work
         rdf:about=""><dc:format>image/svg+xml</dc:format><dc:type
           rdf:resource="http://purl.org/dc/dcmitype/StillImage" /><dc:title></dc:title></cc:Work></rdf:RDF></metadata><defs
     id="defs23" /><sodipodi:namedview
     pagecolor="#ffffff"
     bordercolor="#666666"
     borderopacity="1"
     objecttolerance="10"
     gridtolerance="10"
     guidetolerance="10"
     inkscape:pageopacity="0"
     inkscape:pageshadow="2"
     inkscape:window-width="1366"
     inkscape:window-height="717"
     id="namedview21"
     showgrid="false"
     inkscape:zoom="1.84375"
     inkscape:cx="147.52542"
     inkscape:cy="64"
     inkscape:window-x="0"
     inkscape:window-y="27"
     inkscape:window-maximized="1"
     inkscape:current-layer="Layer_1" /><g
     id="g3"><g
       id="g5"><g
         id="g7"><line
           style="fill:none;stroke:#2F3435;stroke-width:8;stroke-linecap:square;stroke-miterlimit:10;"
           x1="34.033"
           x2="8.566"
           y1="89.467"
           y2="64"
           id="line9" /><line
           style="fill:none;stroke:#2F3435;stroke-width:8;stroke-linecap:square;stroke-miterlimit:10;"
           x1="8.566"
           x2="34.033"
           y1="64"
           y2="38.533"
           id="line11" /></g><g
         id="g13"><line
           style="fill:none;stroke:#2F3435;stroke-width:8;stroke-linecap:square;stroke-miterlimit:10;"
           x1="93.967"
           x2="119.434"
           y1="38.533"
           y2="64"
           id="line15" /><line
           style="fill:none;stroke:#2F3435;stroke-width:8;stroke-linecap:square;stroke-miterlimit:10;"
           x1="119.434"
           x2="93.967"
           y1="64"
           y2="89.467"
           id="line17" /></g></g><line
       style="fill:none;stroke:#2F3435;stroke-width:8;stroke-linecap:square;stroke-miterlimit:10;"
       x1="42"
       x2="87.561"
       y1="105.621"
       y2="22.379"
       id="line19" /></g><path
     style="fill:#ececec"
     d="M 18.411028,79.159322 3.1478365,63.837288 18.730923,48.540383 34.314009,33.243479 l 2.524032,2.562564 2.524031,2.562564 -12.738751,12.730101 -12.738751,12.7301 12.754028,12.762337 12.754027,12.762336 -2.603078,2.563937 c -1.431693,1.410164 -2.718335,2.563938 -2.859203,2.563938 -0.140869,0 -7.124561,-6.894915 -15.519316,-15.322034 z"
     id="path3359"
     inkscape:connector-curvature="0" /><path
     style="fill:#ececec"
     d="m 40.315177,108.96074 c -1.709619,-0.94704 -3.108397,-1.8688 -3.108397,-2.04835 0,-0.43081 48.213241,-88.51308 48.740467,-89.045475 0.331734,-0.334988 6.581567,2.588309 6.581567,3.078462 0,0.13843 -48.82353,89.426943 -49.013875,89.636623 -0.05025,0.0554 -1.490144,-0.67421 -3.199762,-1.62126 z"
     id="path3361"
     inkscape:connector-curvature="0" /><path
     style="fill:#ececec"
     d=""
     id="path3363"
     inkscape:connector-curvature="0" /><path
     style="fill:#ececec"
     d="M 91.295138,91.893614 88.746309,89.305877 101.21383,76.84719 c 6.85714,-6.852277 12.46753,-12.702835 12.46753,-13.001241 0,-0.298406 -5.61722,-6.163593 -12.48271,-13.033749 l -12.482713,-12.491193 2.595445,-2.556418 2.595445,-2.556418 15.442983,15.45012 15.44299,15.45012 -15.17921,15.186472 c -8.34856,8.352558 -15.31205,15.186473 -15.474414,15.186473 -0.162365,0 -1.442181,-1.164485 -2.844038,-2.587742 z"
     id="path3365"
     inkscape:connector-curvature="0" /><path
     style="fill:#ececec"
     d="M 91.611096,91.681285 89.353399,89.423588 101.51738,76.929584 c 6.69019,-6.871701 12.16398,-12.763235 12.16398,-13.092296 0,-0.329061 -5.47692,-6.223806 -12.17093,-13.099434 L 89.3395,38.236711 l 2.284622,-2.242187 2.284623,-2.242188 15.170775,15.178036 15.17078,15.178036 -14.90789,14.915288 c -8.19934,8.203408 -15.035182,14.915287 -15.190755,14.915287 -0.155574,0 -1.298825,-1.015962 -2.540559,-2.257698 z"
     id="path3367"
     inkscape:connector-curvature="0" /><path
     style="fill:#000000"
     d="m 91.555926,91.612279 -2.283487,-2.326703 2.493744,-2.419059 c 1.371559,-1.330482 6.877251,-6.992547 12.234867,-12.582366 7.09116,-7.398486 9.62179,-10.376562 9.30243,-10.947221 -0.24129,-0.431154 -5.73178,-6.255197 -12.20109,-12.942317 l -11.76238,-12.158402 2.284368,-2.241938 2.284367,-2.241937 15.170775,15.178036 15.17078,15.178036 -14.90789,14.915288 c -8.19934,8.203408 -15.041793,14.915287 -15.205446,14.915287 -0.163654,0 -1.325121,-1.047018 -2.581038,-2.326704 z"
     id="path3369"
     inkscape:connector-curvature="0" /><path
     style="fill:#f9f9f9"
     d="M 91.877838,91.362712 89.92197,89.328814 100.6987,78.048286 c 5.92721,-6.20429 11.29875,-12.013623 11.93676,-12.909629 l 1.16003,-1.629101 -3.17571,-3.489302 c -1.74664,-1.919116 -7.13204,-7.601998 -11.967551,-12.628626 l -8.791839,-9.139324 2.025345,-1.977696 2.025344,-1.977696 14.898351,14.905747 14.89836,14.905747 -14.63657,14.644102 c -8.05011,8.054256 -14.771781,14.644102 -14.937041,14.644102 -0.16526,0 -1.180614,-0.915254 -2.256341,-2.033898 z"
     id="path3371"
     inkscape:connector-curvature="0" /><path
     style="fill:#f9f9f9"
     d="m 92.117239,91.09088 -1.709111,-1.763352 9.784762,-10.304442 c 5.38163,-5.667443 10.74343,-11.489847 11.91512,-12.938675 l 2.13035,-2.634233 -7.19375,-7.581997 C 103.08804,51.698082 97.728278,46.023826 95.134027,43.258723 l -4.716821,-5.027459 1.748389,-1.694605 1.748388,-1.694605 14.625647,14.633175 14.62565,14.633175 -14.36524,14.372916 c -7.90089,7.905104 -14.502145,14.372917 -14.669468,14.372917 -0.167322,0 -1.073322,-0.793508 -2.013333,-1.763357 z"
     id="path3373"
     inkscape:connector-curvature="0" /><path
     style="fill:#f9f9f9"
     d="m 40.327631,108.70309 c -1.415734,-0.81178 -2.575056,-1.66534 -2.576271,-1.8968 -0.0027,-0.50571 9.417068,-17.92629 27.926736,-51.646968 22.538849,-41.060988 20.226502,-37.169699 21.744616,-36.592513 3.295173,1.252823 4.649158,2.231642 4.309914,3.115706 -0.187959,0.489802 -8.352938,15.544491 -18.144407,33.454864 -27.923155,51.076521 -30.127102,55.065781 -30.415338,55.053371 -0.149152,-0.006 -1.429515,-0.67587 -2.84525,-1.48766 z"
     id="path3375"
     inkscape:connector-curvature="0" /><path
     style="fill:#ffffff"
     d="M 18.58557,78.843241 3.4970487,63.747498 18.860389,48.770318 l 15.36334,-14.977179 2.314382,2.262769 2.314382,2.26277 -12.483874,12.492358 c -6.86613,6.870796 -12.483873,12.736507 -12.483873,13.034913 0,0.298406 5.609967,6.148546 12.466595,13.000313 L 38.817936,89.304016 36.543499,91.6215 c -1.25094,1.274614 -2.408305,2.317483 -2.571922,2.317483 -0.163617,0 -7.08732,-6.793084 -15.386007,-15.095742 z"
     id="path3377"
     inkscape:connector-curvature="0" /></svg>